<svg xmlns="http://www.w3.org/2000/svg" viewBox="0 0 32 32">
  <circle cx="16" cy="16" r="16" fill="#25D366"/>
  <path d="M23.5 8.5C21.6 6.6 19 5.5 16.3 5.5c-5.6 0-10.1 4.5-10.1 10.1 0 1.8.5 3.5 1.4 5L5.5 26.5l6.1-1.6c1.4.8 3.1 1.2 4.7 1.2 5.6 0 10.1-4.5 10.1-10.1 0-2.7-1-5.2-3-7.5zm-7.2 15.6c-1.5 0-3-.4-4.3-1.2l-.3-.2-3.2.8.9-3.1-.2-.3c-.9-1.3-1.3-2.9-1.3-4.5 0-4.6 3.7-8.3 8.3-8.3 2.2 0 4.3.9 5.9 2.4 1.6 1.6 2.4 3.6 2.4 5.9.1 4.6-3.6 8.5-8.2 8.5zm4.5-6.2c-.2-.1-1.5-.7-1.7-.8-.2-.1-.4-.1-.6.1-.2.2-.6.8-.8.9-.1.2-.3.2-.5.1-.2-.1-1-.4-1.9-1.2-.7-.6-1.2-1.4-1.3-1.6-.1-.2 0-.4.1-.5.1-.1.2-.3.4-.4.1-.1.2-.3.2-.4.1-.1 0-.3 0-.4-.1-.1-.6-1.4-.8-1.9-.2-.5-.4-.4-.6-.4h-.5c-.2 0-.4.1-.6.3-.2.2-.9.9-.9 2.1 0 1.2.9 2.4 1 2.6.1.2 1.7 2.6 4.2 3.6.6.2 1 .4 1.4.5.6.2 1.1.2 1.5.1.5-.1 1.5-.6 1.7-1.2.2-.6.2-1.1.1-1.2-.2-.2-.4-.2-.6-.3z" fill="white"/>
</svg>
